<?xml version="1.0" encoding="UTF-8"?>
<svg id="Layer_1" xmlns="http://www.w3.org/2000/svg" version="1.1" viewBox="0 0 800 165">
  <!-- Generator: Adobe Illustrator 29.1.0, SVG Export Plug-In . SVG Version: 2.1.0 Build 142)  -->
  <defs>
    <style>
      .st0 {
        letter-spacing: .21em;
      }

      .st1 {
        font-size: 80px;
      }

      .st2 {
        font-size: 45px;
        letter-spacing: .24em;
      }

      .st3 {
        font-family: Marion-Regular, Marion;
      }

      .st4 {
        fill: #dd2a1b;
        fill-rule: evenodd;
      }
    </style>
  </defs>
  <text class="st3" transform="translate(174.16 75.55)"><tspan class="st1"><tspan x="0" y="0">MASTER</tspan><tspan class="st0" x="318.8" y="0"> </tspan><tspan x="359.37" y="0">FUND</tspan></tspan><tspan class="st2"><tspan x="3.95" y="70">MANAGEMENT, LLC</tspan></tspan></text>
  <path class="st4" d="M41.24,107.72c-.63,9.17-1.08,50.85-13.21,50.65-13.86-.22-15.63-54.36-15.41-62.78.45-16.47,1.14-80.47,20.17-86.94,18.31-6.21,24.24,25.48,28.01,35.7,1.71,4.65,5.56,14.75,10.03,18.09,11.35-5.21,36.43-70.73,51.68-52.68,6.6,7.79,4.14,39.53,3.53,50.55-1.04-6.59-5.09-33.31-9.4-41.54-.35.55-.65,1.1-1.2,2.13-9.54,18.2-16.76,55.66-40,61.38-22.29,5.46-31.07-24.04-37.43-42.8-3.59,17.93-4.77,44.54-5.1,56.63-.37,13.23-2.82,30.69-2.37,44.79,4.32-10.61,9.13-27.73,10.7-33.18h0ZM115.62,17.21c-.2-.24-.41-.44-.61-.59.16.28.36.47.61.59h0ZM26.26,148.92c-.08.08-.18.18-.26.28.08-.08.18-.18.26-.28h0Z"/>
</svg>